mtllib 365.mtl
v 0.152131 -0.0 -0.152131
v 0.152131 0.0 0.152131
v -0.152131 0.0 0.152131
v -0.152131 -0.0 -0.152131
v 0.152131 2.7 -0.152131
v 0.152131 2.7 0.152131
v -0.152131 2.7 0.152131
v -0.152131 2.7 -0.152131
v 0.16 -0.0 -0.152131
v 0.16 2.7 -0.152131
v 0.16 2.7 0.152131
v 0.16 0.0 0.152131
v 0.152131 0.0 0.16
v 0.152131 2.7 0.16
v -0.152131 2.7 0.16
v -0.152131 0.0 0.16
v -0.16 0.0 0.152131
v -0.16 2.7 0.152131
v -0.16 2.7 -0.152131
v -0.16 -0.0 -0.152131
v 0.152131 2.7 -0.16
v 0.152131 -0.0 -0.16
v -0.152131 -0.0 -0.16
v -0.152131 2.7 -0.16
v 0.152131 9.5E-4 -0.152131
v 0.152131 2.69905 -0.152131
v 0.152131 9.5E-4 0.152131
v 0.152131 2.69905 0.152131
v -0.152131 9.5E-4 0.152131
v -0.152131 2.69905 0.152131
v -0.152131 9.5E-4 -0.152131
v -0.152131 2.69905 -0.152131
v 0.16 9.5E-4 -0.152131
v 0.16 2.69905 -0.152131
v 0.16 2.69905 0.152131
v 0.16 9.5E-4 0.152131
v 0.152131 9.5E-4 0.16
v 0.152131 2.69905 0.16
v -0.152131 2.69905 0.16
v -0.152131 9.5E-4 0.16
v -0.16 9.5E-4 0.152131
v -0.16 2.69905 0.152131
v -0.16 2.69905 -0.152131
v -0.16 9.49E-4 -0.152131
v 0.152131 2.69905 -0.16
v 0.152131 9.49E-4 -0.16
v -0.152131 9.5E-4 -0.16
v -0.152131 2.69905 -0.16
v 0.151637 -0.0 -0.152131
v -0.151636 -0.0 -0.152131
v 0.151636 0.0 0.152131
v -0.151636 0.0 0.152131
v 0.151637 2.7 -0.152131
v -0.151636 2.7 -0.152131
v 0.151636 2.7 0.152131
v -0.151637 2.7 0.152131
v 0.151636 2.7 0.16
v -0.151637 2.7 0.16
v -0.151636 0.0 0.16
v 0.151636 0.0 0.16
v 0.151637 -0.0 -0.16
v -0.151636 -0.0 -0.16
v -0.151636 2.7 -0.16
v 0.151637 2.7 -0.16
v 0.151636 9.5E-4 0.16
v -0.151637 9.5E-4 0.16
v 0.151636 2.69905 0.16
v -0.151637 2.69905 0.16
v 0.151637 2.69905 -0.16
v -0.151636 2.69905 -0.16
v 0.151637 9.5E-4 -0.16
v -0.151636 9.5E-4 -0.16
v 0.152131 -0.0 -0.151542
v 0.152131 0.0 0.151542
v -0.152131 0.0 0.151542
v -0.152131 -0.0 -0.151542
v 0.152131 2.7 -0.151542
v 0.152131 2.7 0.151542
v -0.152131 2.7 0.151542
v -0.152131 2.7 -0.151542
v 0.16 2.7 -0.151542
v 0.16 2.7 0.151542
v 0.16 0.0 0.151542
v 0.16 -0.0 -0.151542
v -0.16 2.7 0.151542
v -0.16 2.7 -0.151542
v -0.16 -0.0 -0.151542
v -0.16 0.0 0.151542
v 0.16 9.5E-4 -0.151542
v 0.16 9.5E-4 0.151542
v 0.16 2.69905 -0.151542
v 0.16 2.69905 0.151542
v -0.16 9.5E-4 0.151542
v -0.16 9.5E-4 -0.151542
v -0.16 2.69905 0.151542
v -0.16 2.69905 -0.151542
v 0.151636 0.0 0.151542
v 0.151637 -0.0 -0.151542
v -0.151636 0.0 0.151542
v -0.151636 -0.0 -0.151542
v 0.151636 2.7 -0.151542
v 0.151636 2.7 0.151542
v -0.151636 2.7 -0.151542
v -0.151637 2.7 0.151542
v 0.159539 2.7 -0.152131
v 0.159539 -0.0 -0.152131
v 0.159539 2.7 0.152131
v 0.159539 0.0 0.152131
v 0.159539 2.69905 -0.152131
v 0.159539 9.5E-4 -0.152131
v 0.159539 9.5E-4 0.152131
v 0.159539 2.69905 0.152131
v 0.159539 2.7 0.151542
v 0.159539 2.7 -0.151542
v 0.159539 -0.0 -0.151542
v 0.159539 0.0 0.151542
v -0.151636 0.0 0.159282
v 0.151636 0.0 0.159282
v 0.151636 2.7 0.159282
v -0.151637 2.7 0.159282
v -0.152131 2.69905 0.159282
v -0.152131 9.5E-4 0.159282
v 0.152131 9.5E-4 0.159282
v 0.152131 2.69905 0.159282
v -0.159539 -0.0 -0.151542
v -0.159539 0.0 0.151542
v -0.159539 2.7 0.151542
v -0.159539 2.7 -0.151542
v 0.152131 9.5E-4 -0.159282
v 0.152131 2.69905 -0.159282
v -0.152131 2.69905 -0.159282
v -0.152131 9.5E-4 -0.159282
v -0.159539 -0.0 -0.152131
v -0.159539 2.7 -0.152131
v -0.159539 0.0 0.152131
v -0.159539 2.7 0.152131
v 0.152131 -0.0 -0.159282
v 0.152131 2.7 -0.159282
v -0.152131 -0.0 -0.159282
v -0.152131 2.7 -0.159282
v -0.152131 0.0 0.159282
v -0.152131 2.7 0.159282
v 0.152131 0.0 0.159282
v 0.152131 2.7 0.159282
v -0.159539 2.69905 -0.152131
v -0.159539 9.5E-4 -0.152131
v -0.159539 9.5E-4 0.152131
v -0.159539 2.69905 0.152131
v -0.151636 2.7 -0.159282
v 0.151637 2.7 -0.159282
v 0.151637 -0.0 -0.159282
v -0.151636 -0.0 -0.159282
vt 1.40471 3.596588
vt 1.403367 3.596587
vt 1.403368 3.597712
vt 1.404709 3.59771
vt 1.404269 2.868011
vt 1.403149 2.868011
vt 1.403147 2.86935
vt 1.40427 2.86935
vt -0.053096 -2.613059
vt -0.05293 -2.614932
vt -0.05372 -2.614826
vt -0.053679 -2.613142
vt 0.639893 3.613051
vt 0.638265 3.612992
vt 0.638328 3.615583
vt 0.639748 3.61549
vt 2.112326 2.178352
vt 2.113367 2.178352
vt 2.113371 2.177016
vt 2.112326 2.177014
vt -0.054173 -2.613046
vt -0.054337 -2.614955
vt 1.404469 2.88854
vt 1.404468 2.88748
vt 1.403121 2.887486
vt 1.403125 2.88854
vt -0.780671 -2.613153
vt -0.78058 -2.615235
vt -0.781504 -2.615225
vt -0.781212 -2.613117
vt -0.088024 3.612942
vt -0.090521 3.612864
vt -0.090479 3.615615
vt -0.088174 3.615497
vt 2.094352 2.885623
vt 2.094352 2.887257
vt 2.095477 2.887257
vt 2.095477 2.885623
vt -0.783138 -2.613033
vt -0.783137 -2.615232
vt 1.387093 3.596592
vt 1.385445 3.596593
vt 1.385448 3.597726
vt 1.387094 3.597721
vt -1.508772 -2.613194
vt -1.508608 -2.615066
vt -1.509399 -2.614956
vt -1.509356 -2.613272
vt -0.817575 3.612688
vt -0.819203 3.612629
vt -0.819138 3.615221
vt -0.817719 3.615127
vt 1.386292 2.868011
vt 1.385251 2.868011
vt 1.385248 2.869345
vt 1.386292 2.869348
vt -1.50985 -2.613173
vt -1.510016 -2.615081
vt 2.094357 3.614334
vt 2.094357 3.615394
vt 2.095704 3.615389
vt 2.0957 3.614334
vt 1.365318 3.613135
vt 1.365435 3.615533
vt 1.366887 3.615615
vt 1.366993 3.613095
vt 0.672578 -2.61309
vt 0.674503 -2.613174
vt 0.67421 -2.615283
vt 0.672577 -2.615289
vt 2.111726 2.906279
vt 2.113375 2.906278
vt 2.113371 2.905146
vt 2.111726 2.90515
vt 1.368953 3.613174
vt 1.368873 3.61555
vt 1.404261 2.16075
vt 1.404261 2.159117
vt 1.403136 2.159117
vt 1.403136 2.16075
vt -0.053024 3.615043
vt -0.053136 3.613071
vt -0.053727 3.613072
vt -0.053979 3.614957
vt 0.639301 -2.615364
vt 0.638139 -2.6154
vt 0.63829 -2.613036
vt 0.639342 -2.613093
vt -0.054832 3.615027
vt -0.054768 3.612973
vt -0.782113 3.614826
vt -0.782219 3.612803
vt -0.78275 3.612803
vt -0.78296 3.614774
vt -0.087379 -2.615321
vt -0.089185 -2.615355
vt -0.088997 -2.612965
vt -0.087345 -2.613038
vt -0.784405 3.614808
vt -0.784364 3.612717
vt -1.510446 3.614487
vt -1.510557 3.612515
vt -1.511148 3.612515
vt -1.511402 3.6144
vt -0.816413 -2.615323
vt -0.817579 -2.615368
vt -0.817429 -2.612988
vt -0.816374 -2.613048
vt -1.512256 3.614469
vt -1.512188 3.612414
vt 1.365196 -2.615565
vt 1.365098 -2.613232
vt 1.366762 -2.61323
vt 1.36657 -2.615615
vt 0.67307 3.615166
vt 0.674517 3.615134
vt 0.674728 3.613159
vt 0.673111 3.613073
vt 1.368373 -2.615588
vt 1.368413 -2.613307
vt 1.404474 2.905397
vt 1.403135 2.905397
vt 1.403135 2.90652
vt 1.404475 2.906518
vt 2.095484 2.868006
vt 2.094349 2.868004
vt 2.094352 2.86935
vt 2.095481 2.869349
vt -0.090561 -2.615309
vt -0.090661 -2.61297
vt 1.403145 2.885622
vt 1.403145 2.887257
vt 1.40427 2.887257
vt 1.40427 2.885622
vt 1.386864 2.905402
vt 1.38523 2.905403
vt 1.385231 2.906528
vt 1.386864 2.906527
vt 0.675367 3.615188
vt 0.675261 3.613159
vt 2.111965 3.597473
vt 2.113602 3.597474
vt 2.113601 3.596346
vt 2.111965 3.596347
vt 2.095467 2.160738
vt 2.095467 2.159103
vt 2.094341 2.159103
vt 2.094341 2.160738
vt -0.092211 3.612974
vt -0.092062 3.615466
vt 0.675045 -2.613212
vt 0.675135 -2.615297
vt 2.095693 3.596352
vt 2.094349 3.596353
vt 2.094351 3.597475
vt 2.095692 3.597476
vt 1.404261 2.177022
vt 1.403136 2.177022
vt 1.403136 2.178361
vt 1.404261 2.178362
vt 0.636571 -2.615359
vt 0.636502 -2.61304
vt 2.112342 2.869345
vt 2.11339 2.869345
vt 2.11339 2.868006
vt 2.112342 2.868006
vt 2.095448 2.888305
vt 2.095448 2.887257
vt 2.094108 2.887257
vt 2.094108 2.888306
vt -0.819152 -2.615318
vt -0.819221 -2.612992
vt 1.386278 2.177022
vt 1.38523 2.177022
vt 1.38523 2.178362
vt 1.386278 2.178362
vt 1.403375 3.614567
vt 1.403376 3.615615
vt 1.404716 3.615615
vt 1.404715 3.614567
vt 0.636463 3.613075
vt 0.636583 3.615499
vt -0.821004 3.612712
vt -0.820884 3.615136
vt 2.095452 2.905161
vt 2.094114 2.905163
vt 2.094114 2.906283
vt 2.095453 2.906284
vt 2.095468 2.177011
vt 2.094342 2.17701
vt 2.094341 2.178354
vt 2.095468 2.178353
vt 0.656867 3.615274
vt 0.656849 3.61307
vt -0.071064 -2.613031
vt -0.071042 -2.615216
vt 0.656214 -2.615299
vt 0.656209 -2.613097
vt -0.071583 3.615172
vt -0.071611 3.612965
vt 1.384706 -2.615514
vt 1.384696 -2.613313
vt -0.799507 -2.613044
vt -0.799501 -2.615246
vt -1.526738 -2.613157
vt -1.526706 -2.615327
vt -1.529027 3.612399
vt -1.529013 3.614577
vt -0.800623 3.61271
vt -0.800605 3.614914
vt 1.385208 3.613183
vt 1.38523 3.615387
vn 0.0 -1.0 0.0
vn -0.301492 -0.904508 0.301492
vn 0.0 1.0 0.0
vn -0.301492 0.904508 0.301492
vn 1.0 0.0 3.1E-5
vn 0.707114 0.707083 0.0
vn 0.577288 0.577349 0.57738
vn 0.707083 0.0 0.707114
vn 0.0 0.0 -1.0
vn 0.707114 0.0 -0.707083
vn 0.577319 -0.577349 -0.577349
vn 0.0 -0.707083 -0.707083
vn 0.707083 0.707114 3.1E-5
vn 0.57738 0.577319 -0.577288
vn 0.0 0.707114 -0.707083
vn 0.0 0.0 1.0
vn 0.0 0.707083 0.707114
vn 0.707083 -0.707083 0.0
vn 0.577349 -0.577319 0.577319
vn 0.0 -0.707114 0.707083
vn -3.1E-5 0.0 1.0
vn -3.1E-5 0.707083 0.707114
vn -0.57738 0.577349 0.577288
vn -0.707114 0.0 0.707053
vn 1.0 0.0 0.0
vn 0.577349 -0.577349 0.577319
vn 0.707114 -0.707083 0.0
vn 0.0 0.707083 0.707083
vn 0.707083 0.707114 0.0
vn -1.0 0.0 0.0
vn -0.707083 0.707083 0.0
vn 0.0 -0.707083 0.707083
vn -0.577349 -0.577349 0.577319
vn -0.707083 -0.707083 0.0
vn -0.707114 0.707083 0.0
vn -0.577319 0.577349 -0.577349
vn -0.707083 0.0 -0.707114
vn -0.707114 0.0 0.707083
vn -0.577349 -0.577319 0.577319
vn -0.577349 0.577319 0.577319
vn 0.0 0.707083 -0.707083
vn -0.577319 -0.577349 -0.577349
vn -0.577319 -0.577319 -0.577349
vn 0.577349 0.577319 -0.577319
vn 0.707083 0.707083 0.0
vn 0.0 -0.707083 -0.707114
vn 0.577349 -0.577349 -0.577319
vn 0.707083 -0.707114 0.0
vn -0.707053 0.0 -0.707114
vn 0.707114 0.0 -0.707053
vn 0.301492 -0.904508 0.301492
vn 0.301492 0.904508 0.301492
vn -0.301492 -0.904508 -0.301492
vn -0.301492 0.904508 -0.301492
vn -0.707083 -0.707114 0.0
vn 0.301492 -0.904508 -0.301492
vn 0.301492 0.904508 -0.301492
vn 0.707083 0.0 -0.707083
vn 0.707083 0.0 0.707083
vn -0.707083 0.0 -0.707083
vn -0.707083 0.0 0.707083
usemtl material_0
f  99/1/1 52/2/1 3/3/2 75/4/1
f  104/5/3 79/6/3 7/7/4 56/8/3
f  92/9/5 82/10/6 11/11/7 35/12/8
f  110/13/9 33/14/10 9/15/11 106/16/12
f  114/17/3 81/18/13 10/19/14 105/20/15
f  112/21/16 35/12/8 11/11/7 107/22/17
f  116/23/1 83/24/18 12/25/19 108/26/20
f  68/27/21 58/28/22 15/29/23 39/30/24
f  123/31/25 37/32/8 13/33/26 143/34/27
f  119/35/3 57/36/28 14/37/7 144/38/29
f  121/39/30 39/30/24 15/29/23 142/40/31
f  117/41/1 59/42/32 16/43/33 141/44/34
f  96/45/30 86/46/35 19/47/36 43/48/37
f  147/49/16 41/50/38 17/51/39 135/52/32
f  127/53/3 85/54/31 18/55/40 136/56/28
f  145/57/9 43/48/37 19/47/36 134/58/41
f  125/59/1 87/60/34 20/61/42 133/62/12
f  72/63/9 62/64/12 23/65/43 47/66/37
f  130/67/25 45/68/10 21/69/44 138/70/45
f  151/71/1 61/72/46 22/73/47 137/74/48
f  132/75/30 47/66/37 23/65/43 139/76/34
f  149/77/3 63/78/15 24/79/36 140/80/31
f  83/81/18 90/82/25 36/83/8 12/84/19
f  90/82/25 92/9/5 35/12/8 36/83/8
f  105/85/15 10/86/14 34/87/10 109/88/9
f  109/88/9 34/87/10 33/14/10 110/13/9
f  108/89/20 12/84/19 36/83/8 111/90/16
f  111/90/16 36/83/8 35/12/8 112/21/16
f  59/91/32 66/92/16 40/93/38 16/94/33
f  66/92/16 68/27/21 39/30/24 40/93/38
f  144/95/29 14/96/7 38/97/8 124/98/25
f  124/98/25 38/97/8 37/32/8 123/31/25
f  141/99/34 16/94/33 40/93/38 122/100/30
f  122/100/30 40/93/38 39/30/24 121/39/30
f  87/101/34 94/102/30 44/103/37 20/104/42
f  94/102/30 96/45/30 43/48/37 44/103/37
f  136/105/28 18/106/40 42/107/38 148/108/16
f  148/108/16 42/107/38 41/50/38 147/49/16
f  133/109/12 20/104/42 44/103/37 146/110/9
f  146/110/9 44/103/37 43/48/37 145/57/9
f  63/111/15 70/112/9 48/113/49 24/114/36
f  70/112/9 72/63/9 47/66/37 48/113/49
f  137/115/48 22/116/47 46/117/50 129/118/25
f  129/118/25 46/117/50 45/68/10 130/67/25
f  140/119/31 24/114/36 48/113/49 131/120/30
f  131/120/30 48/113/49 47/66/37 132/75/30
f  74/121/1 2/122/51 51/123/1 97/124/1
f  97/124/1 51/123/1 52/2/1 99/1/1
f  78/125/3 102/126/3 55/127/3 6/128/52
f  102/126/3 104/5/3 56/8/3 55/127/3
f  38/97/8 14/96/7 57/129/28 67/130/16
f  67/130/16 57/129/28 58/28/22 68/27/21
f  142/131/31 15/132/23 58/133/22 120/134/3
f  120/134/3 58/133/22 57/36/28 119/35/3
f  143/135/27 13/136/26 60/137/32 118/138/1
f  118/138/1 60/137/32 59/42/32 117/41/1
f  46/117/50 22/116/47 61/139/46 71/140/9
f  71/140/9 61/139/46 62/64/12 72/63/9
f  139/141/34 23/142/43 62/143/12 152/144/1
f  152/144/1 62/143/12 61/72/46 151/71/1
f  138/145/45 21/146/44 64/147/41 150/148/3
f  150/148/3 64/147/41 63/78/15 149/77/3
f  13/33/26 37/32/8 65/149/16 60/150/32
f  60/150/32 65/149/16 66/92/16 59/91/32
f  37/32/8 38/97/8 67/130/16 65/149/16
f  65/149/16 67/130/16 68/27/21 66/92/16
f  21/69/44 45/68/10 69/151/9 64/152/41
f  64/152/41 69/151/9 70/112/9 63/111/15
f  45/68/10 46/117/50 71/140/9 69/151/9
f  69/151/9 71/140/9 72/63/9 70/112/9
f  50/153/1 100/154/1 76/155/1 4/156/53
f  100/154/1 99/1/1 75/4/1 76/155/1
f  54/157/3 8/158/54 80/159/3 103/160/3
f  103/160/3 80/159/3 79/6/3 104/5/3
f  34/87/10 10/86/14 81/161/13 91/162/5
f  91/162/5 81/161/13 82/10/6 92/9/5
f  107/163/17 11/164/7 82/165/6 113/166/3
f  113/166/3 82/165/6 81/18/13 114/17/3
f  106/167/12 9/168/11 84/169/18 115/170/1
f  115/170/1 84/169/18 83/24/18 116/23/1
f  42/107/38 18/106/40 85/171/31 95/172/30
f  95/172/30 85/171/31 86/46/35 96/45/30
f  134/173/41 19/174/36 86/175/35 128/176/3
f  128/176/3 86/175/35 85/54/31 127/53/3
f  135/177/32 17/178/39 88/179/55 126/180/1
f  126/180/1 88/179/55 87/60/34 125/59/1
f  9/15/11 33/14/10 89/181/25 84/182/18
f  84/182/18 89/181/25 90/82/25 83/81/18
f  33/14/10 34/87/10 91/162/5 89/181/25
f  89/181/25 91/162/5 92/9/5 90/82/25
f  17/51/39 41/50/38 93/183/30 88/184/55
f  88/184/55 93/183/30 94/102/30 87/101/34
f  41/50/38 42/107/38 95/172/30 93/183/30
f  93/183/30 95/172/30 96/45/30 94/102/30
f  1/185/56 73/186/1 98/187/1 49/188/1
f  73/186/1 74/121/1 97/124/1 98/187/1
f  49/188/1 98/187/1 100/154/1 50/153/1
f  98/187/1 97/124/1 99/1/1 100/154/1
f  5/189/57 53/190/3 101/191/3 77/192/3
f  77/192/3 101/191/3 102/126/3 78/125/3
f  53/190/3 54/157/3 103/160/3 101/191/3
f  101/191/3 103/160/3 104/5/3 102/126/3
f  106/16/12 1/193/56 25/194/58 110/13/9
f  77/192/3 114/17/3 105/20/15 5/189/57
f  28/195/8 112/21/16 107/22/17 6/196/52
f  74/121/1 116/23/1 108/26/20 2/122/51
f  5/197/57 105/85/15 109/88/9 26/198/58
f  26/198/58 109/88/9 110/13/9 25/194/58
f  2/199/51 108/89/20 111/90/16 27/200/59
f  27/200/59 111/90/16 112/21/16 28/195/8
f  6/128/52 107/163/17 113/166/3 78/125/3
f  78/125/3 113/166/3 114/17/3 77/192/3
f  1/185/56 106/167/12 115/170/1 73/186/1
f  73/186/1 115/170/1 116/23/1 74/121/1
f  26/198/58 130/67/25 138/70/45 5/197/57
f  8/201/54 140/119/31 131/120/30 32/202/60
f  27/200/59 123/31/25 143/34/27 2/199/51
f  3/3/2 135/177/32 126/180/1 75/4/1
f  30/203/61 121/39/30 142/40/31 7/204/4
f  32/205/60 145/57/9 134/58/41 8/206/54
f  31/207/60 146/110/9 145/57/9 32/205/60
f  8/158/54 134/173/41 128/176/3 80/159/3
f  25/194/58 129/118/25 130/67/25 26/198/58
f  51/123/1 118/138/1 117/41/1 52/2/1
f  4/208/53 133/109/12 146/110/9 31/207/60
f  29/209/61 147/49/16 135/52/32 3/210/2
f  30/203/61 148/108/16 147/49/16 29/209/61
f  7/204/4 136/105/28 148/108/16 30/203/61
f  76/155/1 125/59/1 133/62/12 4/156/53
f  54/157/3 149/77/3 140/80/31 8/158/54
f  75/4/1 126/180/1 125/59/1 76/155/1
f  4/156/53 139/141/34 152/144/1 50/153/1
f  1/193/56 137/115/48 129/118/25 25/194/58
f  80/159/3 128/176/3 127/53/3 79/6/3
f  79/6/3 127/53/3 136/56/28 7/7/4
f  29/209/61 122/100/30 121/39/30 30/203/61
f  5/189/57 138/145/45 150/148/3 53/190/3
f  53/190/3 150/148/3 149/77/3 54/157/3
f  32/202/60 131/120/30 132/75/30 31/211/60
f  2/122/51 143/135/27 118/138/1 51/123/1
f  6/196/52 144/95/29 124/98/25 28/195/8
f  137/74/48 1/185/56 49/188/1 151/71/1
f  31/211/60 132/75/30 139/76/34 4/212/53
f  50/153/1 152/144/1 151/71/1 49/188/1
f  56/8/3 120/134/3 119/35/3 55/127/3
f  3/210/2 141/99/34 122/100/30 29/209/61
f  28/195/8 124/98/25 123/31/25 27/200/59
f  55/127/3 119/35/3 144/38/29 6/128/52
f  7/7/4 142/131/31 120/134/3 56/8/3
f  52/2/1 117/41/1 141/44/34 3/3/2
