mtllib fr_0rm_2c.mtl
o Ceiling#0_2
v 43.414997407235205 2.740000009536744 40.53499899338931
v 48.569997292011976 2.740000009536744 40.559998992830515
v 48.569997292011976 2.740000009536743 37.459999062120914
v 43.524997404776514 2.7400000095367436 37.48499906156212
v 43.40479501475539 2.740000009536744 40.54479241867095
v 48.57997301430171 2.740000009536744 40.57002321129668
v 48.579972484315746 2.740000009536743 37.449974316260686
v 43.51534983943632 2.7400000095367436 37.475046746565056
v 43.39732634510141 2.740000009536744 40.55196170355725
v 48.58727574985999 2.740000009536744 40.57736144852009
v 48.587274831897375 2.740000009536743 37.442635692958035
v 43.508287331437955 2.7400000095367436 37.46776114633427
v 43.39459262227558 2.740000009536744 40.5545858439526
v 48.58994873659144 2.740000009536744 40.58004742976285
v 48.589947676619516 2.740000009536743 37.439949570400465
v 43.50570227409612 2.7400000095367436 37.465094431567984
v 43.39459262227558 2.690000010654331 40.5545858439526
v 48.58994873659144 2.690000010654331 40.58004742976285
v 48.589947676619516 2.6900000106543303 37.439949570400465
v 43.50570227409612 2.6900000106543303 37.465094431567984
v 43.39732634510141 2.690000010654331 40.55196170355725
v 48.58727574985999 2.690000010654331 40.57736144852009
v 48.587274831897375 2.6900000106543303 37.442635692958035
v 43.508287331437955 2.6900000106543303 37.46776114633427
v 43.40479501475539 2.690000010654331 40.54479241867095
v 48.57997301430171 2.690000010654331 40.57002321129668
v 48.579972484315746 2.6900000106543303 37.449974316260686
v 43.51534983943632 2.6900000106543303 37.475046746565056
v 43.414997407235205 2.690000010654331 40.53499899338931
v 48.569997292011976 2.690000010654331 40.559998992830515
v 48.569997292011976 2.6900000106543303 37.459999062120914
v 43.524997404776514 2.6900000106543307 37.48499906156212
vt 5.1000000000000005 1
vt 0.055 1.025
vt -0.055 4.075
vt 5.1000000000000005 4.1
vt 1.025 0.01
vt 1 0.01
vt 1.0150476847804808 0.01
vt 0.9899752539157031 0.01
vt 1.0077620843868518 0.01
vt 0.9826366304490205 0.01
vt 1.0050953695609617 0.01
vt 0.979950507831406 0.01
vt 1.0050953695609617 -0.04
vt 0.979950507831406 -0.04
vt 1.0077620843868518 -0.04
vt 0.9826366304490205 -0.04
vt 1.0150476847804808 -0.04
vt 0.9899752539157031 -0.04
vt 1.025 -0.04
vt 1 -0.04
vt 4.1 0.01
vt 4.110024218690226 0.01
vt 4.117362456077652 0.01
vt 4.120048437380452 0.01
vt 4.120048437380452 -0.04
vt 4.117362456077652 -0.04
vt 4.110024218690226 -0.04
vt 4.1 -0.04
vt 4.075 0.01
vt 4.084793425500545 0.01
vt 4.091962710547085 0.01
vt 4.094586851001091 0.01
vt 4.094586851001091 -0.04
vt 4.091962710547085 -0.04
vt 4.084793425500545 -0.04
vt 4.075 -0.04
vn 0 1 -2.220446049250313e-16
vn 0 -1 2.220446049250313e-16
vn -0.0049455822189083615 -2.22041889437969e-16 -0.9999877705334781
vn 0.9999999999999432 -7.495341170787221e-23 -3.3756015703772065e-7
vn -0.0049007766714990325 2.220419384184383e-16 0.9999879911219014
vn -0.9993539315128668 -7.980394214517768e-18 -0.03594050041077188
usemtl material_0
f 3/1/1 4/2/1 1/3/1
f 1/3/1 2/4/1 3/1/1
f 29/3/2 32/2/2 31/1/2
f 31/1/2 30/4/2 29/3/2
f 4/5/1 3/6/1 8/7/1
f 3/6/1 7/8/1 8/7/1
f 8/7/1 7/8/1 12/9/1
f 7/8/1 11/10/1 12/9/1
f 12/9/1 11/10/1 16/11/1
f 11/10/1 15/12/1 16/11/1
f 16/11/3 15/12/3 20/13/3
f 15/12/3 19/14/3 20/13/3
f 20/13/2 19/14/2 24/15/2
f 19/14/2 23/16/2 24/15/2
f 24/15/2 23/16/2 28/17/2
f 23/16/2 27/18/2 28/17/2
f 28/17/2 27/18/2 32/19/2
f 27/18/2 31/20/2 32/19/2
f 3/6/1 2/21/1 7/8/1
f 2/21/1 6/22/1 7/8/1
f 7/8/1 6/22/1 11/10/1
f 6/22/1 10/23/1 11/10/1
f 11/10/1 10/23/1 15/12/1
f 10/23/1 14/24/1 15/12/1
f 15/12/4 14/24/4 19/14/4
f 14/24/4 18/25/4 19/14/4
f 19/14/2 18/25/2 23/16/2
f 18/25/2 22/26/2 23/16/2
f 23/16/2 22/26/2 27/18/2
f 22/26/2 26/27/2 27/18/2
f 27/18/2 26/27/2 31/20/2
f 26/27/2 30/28/2 31/20/2
f 2/21/1 1/29/1 6/22/1
f 1/29/1 5/30/1 6/22/1
f 6/22/1 5/30/1 10/23/1
f 5/30/1 9/31/1 10/23/1
f 10/23/1 9/31/1 14/24/1
f 9/31/1 13/32/1 14/24/1
f 14/24/5 13/32/5 18/25/5
f 13/32/5 17/33/5 18/25/5
f 18/25/2 17/33/2 22/26/2
f 17/33/2 21/34/2 22/26/2
f 22/26/2 21/34/2 26/27/2
f 21/34/2 25/35/2 26/27/2
f 26/27/2 25/35/2 30/28/2
f 25/35/2 29/36/2 30/28/2
f 1/29/1 4/5/1 5/30/1
f 4/5/1 8/7/1 5/30/1
f 5/30/1 8/7/1 9/31/1
f 8/7/1 12/9/1 9/31/1
f 9/31/1 12/9/1 13/32/1
f 12/9/1 16/11/1 13/32/1
f 13/32/6 16/11/6 17/33/6
f 16/11/6 20/13/6 17/33/6
f 17/33/2 20/13/2 21/34/2
f 20/13/2 24/15/2 21/34/2
f 21/34/2 24/15/2 25/35/2
f 24/15/2 28/17/2 25/35/2
f 25/35/2 28/17/2 29/36/2
f 28/17/2 32/19/2 29/36/2
