mtllib fr_0rm_0c.mtl
o Ceiling#0_0
v 38.45249893004075 2.7400000095367445 42.54499897081405
v 43.442498818505555 2.7400000095367445 42.59499896969646
v 43.52499881666154 2.740000009536743 37.48499908391386
v 38.369998931884766 2.740000009536743 37.459999084472656
v 38.442658264490404 2.7400000095367445 42.55490086872071
v 43.45233707367921 2.7400000095367445 42.60509805117751
v 43.53510322879931 2.740000009536743 37.475104598257225
v 38.35994222838618 2.740000009536743 37.45005611178835
v 38.43545439732726 2.7400000095367445 42.56214956107974
v 43.45953917632416 2.7400000095367445 42.61249109193141
v 43.542500171864766 2.740000009536743 37.46786133204181
v 38.35258021046856 2.740000009536743 37.44277735060517
v 38.43281759894006 2.7400000095367445 42.564802766627366
v 43.46217532885287 2.7400000095367445 42.61519713265855
v 43.54520764093708 2.740000009536743 37.46521011260059
v 38.3498855248876 2.740000009536743 37.44011313910404
v 38.43281759894006 2.6900000106543316 42.564802766627366
v 43.46217532885287 2.6900000106543316 42.61519713265855
v 43.54520764093708 2.6900000106543303 37.46521011260059
v 38.3498855248876 2.6900000106543303 37.44011313910404
v 38.43545439732726 2.6900000106543316 42.56214956107974
v 43.45953917632416 2.6900000106543316 42.61249109193141
v 43.542500171864766 2.6900000106543303 37.46786133204181
v 38.35258021046856 2.6900000106543303 37.44277735060517
v 38.442658264490404 2.6900000106543316 42.55490086872071
v 43.45233707367921 2.6900000106543316 42.60509805117751
v 43.53510322879931 2.6900000106543303 37.475104598257225
v 38.35994222838618 2.6900000106543303 37.45005611178835
v 38.45249893004075 2.6900000106543316 42.54499897081405
v 43.442498818505555 2.6900000106543316 42.59499896969646
v 43.52499881666154 2.6900000106543303 37.48499908391386
v 38.369998931884766 2.6900000106543303 37.459999084472656
vt 5.155 0.025
vt 0 0
vt 0.0825 5.085
vt 5.0725 5.135
vt 0 0.01
vt 0.025 0.01
vt -0.009942972906549425 0.01
vt 0.01510551412220365 0.01
vt -0.0172217342524244 0.01
vt 0.007862247744883982 0.01
vt -0.01988594581309885 0.01
vt 0.005211028244407299 0.01
vt -0.01988594581309885 -0.04
vt 0.005211028244407299 -0.04
vt -0.0172217342524244 -0.04
vt 0.007862247744883982 -0.04
vt -0.009942972906549425 -0.04
vt 0.01510551412220365 -0.04
vt 0 -0.04
vt 0.025 -0.04
vt 5.135 0.01
vt 5.145099081706778 0.01
vt 5.152492122625929 0.01
vt 5.155198163413557 0.01
vt 5.155198163413557 -0.04
vt 5.152492122625929 -0.04
vt 5.145099081706778 -0.04
vt 5.135 -0.04
vt 5.085 0.01
vt 5.094901898127982 0.01
vt 5.102150590649036 0.01
vt 5.104803796255964 0.01
vt 5.104803796255964 -0.04
vt 5.102150590649036 -0.04
vt 5.094901898127982 -0.04
vt 5.085 -0.04
vn 0 1 -2.220446049250313e-16
vn 0 -1 2.220446049250313e-16
vn 0.0048306303469616615 -2.2204201420564997e-16 -0.9999883324371596
vn 0.9998700526766158 3.5795199168740806e-18 0.016120724563799378
vn -0.010019537105994382 2.2203345899157297e-16 0.9999498031782303
vn -0.999869083426107 3.592843699410747e-18 0.016180729545866676
usemtl material_0
f 3/1/1 4/2/1 1/3/1
f 1/3/1 2/4/1 3/1/1
f 29/3/2 32/2/2 31/1/2
f 31/1/2 30/4/2 29/3/2
f 4/5/1 3/6/1 8/7/1
f 3/6/1 7/8/1 8/7/1
f 8/7/1 7/8/1 12/9/1
f 7/8/1 11/10/1 12/9/1
f 12/9/1 11/10/1 16/11/1
f 11/10/1 15/12/1 16/11/1
f 16/11/3 15/12/3 20/13/3
f 15/12/3 19/14/3 20/13/3
f 20/13/2 19/14/2 24/15/2
f 19/14/2 23/16/2 24/15/2
f 24/15/2 23/16/2 28/17/2
f 23/16/2 27/18/2 28/17/2
f 28/17/2 27/18/2 32/19/2
f 27/18/2 31/20/2 32/19/2
f 3/6/1 2/21/1 7/8/1
f 2/21/1 6/22/1 7/8/1
f 7/8/1 6/22/1 11/10/1
f 6/22/1 10/23/1 11/10/1
f 11/10/1 10/23/1 15/12/1
f 10/23/1 14/24/1 15/12/1
f 15/12/4 14/24/4 19/14/4
f 14/24/4 18/25/4 19/14/4
f 19/14/2 18/25/2 23/16/2
f 18/25/2 22/26/2 23/16/2
f 23/16/2 22/26/2 27/18/2
f 22/26/2 26/27/2 27/18/2
f 27/18/2 26/27/2 31/20/2
f 26/27/2 30/28/2 31/20/2
f 2/21/1 1/29/1 6/22/1
f 1/29/1 5/30/1 6/22/1
f 6/22/1 5/30/1 10/23/1
f 5/30/1 9/31/1 10/23/1
f 10/23/1 9/31/1 14/24/1
f 9/31/1 13/32/1 14/24/1
f 14/24/5 13/32/5 18/25/5
f 13/32/5 17/33/5 18/25/5
f 18/25/2 17/33/2 22/26/2
f 17/33/2 21/34/2 22/26/2
f 22/26/2 21/34/2 26/27/2
f 21/34/2 25/35/2 26/27/2
f 26/27/2 25/35/2 30/28/2
f 25/35/2 29/36/2 30/28/2
f 1/29/1 4/5/1 5/30/1
f 4/5/1 8/7/1 5/30/1
f 5/30/1 8/7/1 9/31/1
f 8/7/1 12/9/1 9/31/1
f 9/31/1 12/9/1 13/32/1
f 12/9/1 16/11/1 13/32/1
f 13/32/6 16/11/6 17/33/6
f 16/11/6 20/13/6 17/33/6
f 17/33/2 20/13/2 21/34/2
f 20/13/2 24/15/2 21/34/2
f 21/34/2 24/15/2 25/35/2
f 24/15/2 28/17/2 25/35/2
f 25/35/2 28/17/2 29/36/2
f 28/17/2 32/19/2 29/36/2
