mtllib fr_0rm_0w.mtl
o WallInside#0_0_0
v 38.32999801635742 2.734999938867986 37.45980453491211
v 43.56499708806511 2.734999938867986 37.48519250208465
v 43.56499708806511 0 37.48519250208465
v 38.32999801635742 0 37.45980453491211
v 41.44209870751321 0.8699999772756349 37.47489716608595
v 42.802931412415596 0.8699999772756349 37.481496742430885
v 42.802931412415596 2.229999950155616 37.481496742430885
v 41.44209870751321 2.229999950155616 37.47489716608595
v 39.14764313564612 0.8699999772756349 37.46376983598723
v 40.5084758405485 0.8699999772756349 37.47036941233216
v 40.5084758405485 2.229999950155616 37.47036941233216
v 39.14764313564612 2.229999950155616 37.46376983598723
v 38.32975553619326 2.734999938867986 37.5098039470613
v 43.56475460790095 2.734999938867986 37.53519191423384
v 43.56475460790095 0 37.53519191423384
v 38.32975553619326 0 37.5098039470613
v 41.44185622734905 0.8699999772756349 37.52489657823514
v 42.802688932251435 0.8699999772756349 37.531496154580076
v 42.802688932251435 2.229999950155616 37.531496154580076
v 41.44185622734905 2.229999950155616 37.52489657823514
v 39.14740065548196 0.8699999772756349 37.51376924813642
v 40.50823336038434 0.8699999772756349 37.52036882448135
v 40.50823336038434 2.229999950155616 37.52036882448135
v 39.14740065548196 2.229999950155616 37.51376924813642
vt 4.472985985026782 2.23
vt 0 2.735
vt 5.235060620400114 2.735
vt 3.1121372806041547 2.23
vt 0.8176547324686172 2.23
vt 0.8176547324686172 0.8699999967216502
vt 0 0
vt 5.235060620400114 0
vt 2.1785034368912353 2.23
vt 2.1785034368912353 0.8699999967216502
vt 4.472985985026782 0.8699999967216502
vt 3.1121372806041547 0.8699999967216502
vt 0 0.01
vt 5.235060620400114 0.01
vt 0 -0.04
vt 5.235060620400114 -0.04
vt 2.735 0.01
vt 2.735 -0.04
vt 3.1121372806041547 0.01
vt 4.472985985026782 0.01
vt 3.1121372806041547 -0.04
vt 4.472985985026782 -0.04
vt 2.23 0.01
vt 0.8699999967216502 0.01
vt 2.23 -0.04
vt 0.8699999967216502 -0.04
vt 0.8176547324686172 0.01
vt 2.1785034368912353 0.01
vt 0.8176547324686172 -0.04
vt 2.1785034368912353 -0.04
vn 0.004849603425021576 0 -0.9999882406041682
vn 0.004849603425021576 0 -0.9999882406041684
vn -0.004849603425021576 0 0.9999882406041682
vn -0.004849603425021576 0 0.9999882406041684
vn 0 -1 0
vn 0.9999882406041682 0 0.004849603425021576
vn 0 1 0
vn -0.9999882406041682 0 -0.004849603425021576
usemtl material_0
f 7/1/1 1/2/1 2/3/1
f 1/2/1 7/1/1 8/4/1
f 12/5/2 9/6/2 1/2/2
f 4/7/2 1/2/2 9/6/2
f 7/1/1 2/3/1 3/8/1
f 11/9/1 12/5/1 1/2/1
f 4/7/1 9/6/1 10/10/1
f 6/11/1 7/1/1 3/8/1
f 11/9/1 1/2/1 8/4/1
f 3/8/1 4/7/1 10/10/1
f 5/12/1 6/11/1 3/8/1
f 11/9/1 8/4/1 5/12/1
f 5/12/1 3/8/1 10/10/1
f 10/10/1 11/9/1 5/12/1
f 14/3/3 13/2/3 19/1/3
f 20/4/3 19/1/3 13/2/3
f 13/2/4 21/6/4 24/5/4
f 21/6/4 13/2/4 16/7/4
f 15/8/3 14/3/3 19/1/3
f 13/2/3 24/5/3 23/9/3
f 22/10/3 21/6/3 16/7/3
f 15/8/3 19/1/3 18/11/3
f 20/4/3 13/2/3 23/9/3
f 22/10/3 16/7/3 15/8/3
f 15/8/3 18/11/3 17/12/3
f 17/12/3 20/4/3 23/9/3
f 22/10/3 15/8/3 17/12/3
f 17/12/3 23/9/3 22/10/3
usemtl material_1
f 4/13/5 3/14/5 16/15/5
f 3/14/5 15/16/5 16/15/5
f 3/13/6 2/17/6 15/15/6
f 2/17/6 14/18/6 15/15/6
f 2/14/7 1/13/7 14/16/7
f 1/13/7 13/15/7 14/16/7
f 1/17/8 4/13/8 13/18/8
f 4/13/8 16/15/8 13/18/8
f 8/19/5 7/20/5 20/21/5
f 7/20/5 19/22/5 20/21/5
f 7/23/8 6/24/8 19/25/8
f 6/24/8 18/26/8 19/25/8
f 6/20/7 5/19/7 18/22/7
f 5/19/7 17/21/7 18/22/7
f 5/24/6 8/23/6 17/26/6
f 8/23/6 20/25/6 17/26/6
f 12/27/5 11/28/5 24/29/5
f 11/28/5 23/30/5 24/29/5
f 11/23/8 10/24/8 23/25/8
f 10/24/8 22/26/8 23/25/8
f 10/28/7 9/27/7 22/30/7
f 9/27/7 21/29/7 22/30/7
f 9/24/6 12/23/6 21/26/6
f 12/23/6 24/25/6 21/26/6
o WallOutside#0_0_0
v 38.33021545410156 2.734999938867986 37.415069580078125
v 43.56521452580925 2.734999938867986 37.440457547250666
v 43.56521452580925 0 37.440457547250666
v 38.33021545410156 0 37.415069580078125
v 41.44231614525735 0.8699999772756349 37.43016221125197
v 42.80314885015974 0.8699999772756349 37.4367617875969
v 42.80314885015974 2.229999950155616 37.4367617875969
v 41.44231614525735 2.229999950155616 37.43016221125197
v 39.14786057339026 0.8699999772756349 37.419034881153244
v 40.50869327829264 0.8699999772756349 37.42563445749818
v 40.50869327829264 2.229999950155616 37.42563445749818
v 39.14786057339026 2.229999950155616 37.419034881153244
v 38.3299729739374 2.734999938867986 37.465068992227316
v 43.56497204564509 2.734999938867986 37.49045695939986
v 43.56497204564509 0 37.49045695939986
v 38.3299729739374 0 37.465068992227316
v 41.44207366509319 0.8699999772756349 37.48016162340116
v 42.802906369995576 0.8699999772756349 37.48676119974609
v 42.802906369995576 2.229999950155616 37.48676119974609
v 41.44207366509319 2.229999950155616 37.48016162340116
v 39.1476180932261 0.8699999772756349 37.469034293302435
v 40.50845079812848 0.8699999772756349 37.47563386964737
v 40.50845079812848 2.229999950155616 37.47563386964737
v 39.1476180932261 2.229999950155616 37.469034293302435
vt 4.472985985026782 2.23
vt 0 2.735
vt 5.235060620400114 2.735
vt 3.1121372806041547 2.23
vt 0.8176547324686172 2.23
vt 0.8176547324686172 0.8699999967216502
vt 0 0
vt 5.235060620400114 0
vt 2.1785034368912353 2.23
vt 2.1785034368912353 0.8699999967216502
vt 4.472985985026782 0.8699999967216502
vt 3.1121372806041547 0.8699999967216502
vt 0 0.01
vt 5.235060620400114 0.01
vt 0 -0.04
vt 5.235060620400114 -0.04
vt 2.735 0.01
vt 2.735 -0.04
vt 3.1121372806041547 0.01
vt 4.472985985026782 0.01
vt 3.1121372806041547 -0.04
vt 4.472985985026782 -0.04
vt 2.23 0.01
vt 0.8699999967216502 0.01
vt 2.23 -0.04
vt 0.8699999967216502 -0.04
vt 0.8176547324686172 0.01
vt 2.1785034368912353 0.01
vt 0.8176547324686172 -0.04
vt 2.1785034368912353 -0.04
vn 0.004849603425021576 0 -0.9999882406041682
vn 0.004849603425021576 0 -0.9999882406041684
vn -0.004849603425021576 0 0.9999882406041682
vn -0.004849603425021576 0 0.9999882406041684
vn 0 -1 0
vn 0.9999882406041682 0 0.004849603425021576
vn 0 1 0
vn -0.9999882406041682 0 -0.004849603425021576
usemtl material_2
f 31/31/9 25/32/9 26/33/9
f 25/32/9 31/31/9 32/34/9
f 36/35/10 33/36/10 25/32/10
f 28/37/10 25/32/10 33/36/10
f 31/31/9 26/33/9 27/38/9
f 35/39/9 36/35/9 25/32/9
f 28/37/9 33/36/9 34/40/9
f 30/41/9 31/31/9 27/38/9
f 35/39/9 25/32/9 32/34/9
f 27/38/9 28/37/9 34/40/9
f 29/42/9 30/41/9 27/38/9
f 35/39/9 32/34/9 29/42/9
f 29/42/9 27/38/9 34/40/9
f 34/40/9 35/39/9 29/42/9
f 38/33/11 37/32/11 43/31/11
f 44/34/11 43/31/11 37/32/11
f 37/32/12 45/36/12 48/35/12
f 45/36/12 37/32/12 40/37/12
f 39/38/11 38/33/11 43/31/11
f 37/32/11 48/35/11 47/39/11
f 46/40/11 45/36/11 40/37/11
f 39/38/11 43/31/11 42/41/11
f 44/34/11 37/32/11 47/39/11
f 46/40/11 40/37/11 39/38/11
f 39/38/11 42/41/11 41/42/11
f 41/42/11 44/34/11 47/39/11
f 46/40/11 39/38/11 41/42/11
f 41/42/11 47/39/11 46/40/11
usemtl material_1
f 28/43/13 27/44/13 40/45/13
f 27/44/13 39/46/13 40/45/13
f 27/43/14 26/47/14 39/45/14
f 26/47/14 38/48/14 39/45/14
f 26/44/15 25/43/15 38/46/15
f 25/43/15 37/45/15 38/46/15
f 25/47/16 28/43/16 37/48/16
f 28/43/16 40/45/16 37/48/16
f 32/49/13 31/50/13 44/51/13
f 31/50/13 43/52/13 44/51/13
f 31/53/16 30/54/16 43/55/16
f 30/54/16 42/56/16 43/55/16
f 30/50/15 29/49/15 42/52/15
f 29/49/15 41/51/15 42/52/15
f 29/54/14 32/53/14 41/56/14
f 32/53/14 44/55/14 41/56/14
f 36/57/13 35/58/13 48/59/13
f 35/58/13 47/60/13 48/59/13
f 35/53/16 34/54/16 47/55/16
f 34/54/16 46/56/16 47/55/16
f 34/58/15 33/57/15 46/60/15
f 33/57/15 45/59/15 46/60/15
f 33/54/14 36/53/14 45/56/14
f 36/53/14 48/55/14 45/56/14
o WallInside#0_0_1
v 43.52564239501953 2.734999938867986 37.445003509521484
v 43.441850911035075 2.734999938867986 42.6349930212989
v 43.441850911035075 0 42.6349930212989
v 43.52564239501953 0 37.445003509521484
v 43.466690136870255 0.03999999604613044 41.09646767916316
v 43.45439703963973 0.03999999604613044 41.85789405162734
v 43.45439703963973 2.1199999526143074 41.85789405162734
v 43.466690136870255 2.1199999526143074 41.09646767916316
v 43.47564891073853 2.734999938867986 37.444196373355226
v 43.39185742675407 2.734999938867986 42.63418588513264
v 43.39185742675407 0 42.63418588513264
v 43.47564891073853 0 37.444196373355226
v 43.41669665258925 0.03999999604613044 41.0956605429969
v 43.404403555358726 0.03999999604613044 41.85708691546108
v 43.404403555358726 2.1199999526143074 41.85708691546108
v 43.41669665258925 2.1199999526143074 41.0956605429969
vt 3.6519400699474374 2.12
vt 3.6519400699474374 0.03999999694020005
vt 0 2.735
vt 0 0
vt 5.190665930189532 2.735
vt 4.41346568014931 0.03999999694020005
vt 4.41346568014931 2.12
vt 5.190665930189532 0
vt 0 0.01
vt 5.190665930189532 0.01
vt 0 -0.04
vt 5.190665930189532 -0.04
vt 2.735 0.01
vt 2.735 -0.04
vt 3.6519400699474374 0.01
vt 4.41346568014931 0.01
vt 3.6519400699474374 -0.04
vt 4.41346568014931 -0.04
vt 2.12 0.01
vt 0.03999999694020005 0.01
vt 2.12 -0.04
vt 0.03999999694020005 -0.04
vn 0.9998696977466546 0 0.01614272368634764
vn -0.9998696977466546 0 -0.01614272368634764
vn 0 -1 0
vn -0.01614272368634764 0 0.9998696977466546
vn 0 1 0
vn 0.01614272368634764 0 -0.9998696977466546
usemtl material_3
f 56/61/17 53/62/17 49/63/17
f 52/64/17 49/63/17 53/62/17
f 56/61/17 49/63/17 50/65/17
f 52/64/17 53/62/17 54/66/17
f 55/67/17 56/61/17 50/65/17
f 51/68/17 52/64/17 54/66/17
f 55/67/17 50/65/17 51/68/17
f 51/68/17 54/66/17 55/67/17
f 57/63/18 61/62/18 64/61/18
f 61/62/18 57/63/18 60/64/18
f 58/65/18 57/63/18 64/61/18
f 62/66/18 61/62/18 60/64/18
f 58/65/18 64/61/18 63/67/18
f 62/66/18 60/64/18 59/68/18
f 59/68/18 58/65/18 63/67/18
f 63/67/18 62/66/18 59/68/18
usemtl material_4
f 52/69/19 51/70/19 60/71/19
f 51/70/19 59/72/19 60/71/19
f 51/69/20 50/73/20 59/71/20
f 50/73/20 58/74/20 59/71/20
f 50/70/21 49/69/21 58/72/21
f 49/69/21 57/71/21 58/72/21
f 49/73/22 52/69/22 57/74/22
f 52/69/22 60/71/22 57/74/22
f 56/75/19 55/76/19 64/77/19
f 55/76/19 63/78/19 64/77/19
f 55/79/22 54/80/22 63/81/22
f 54/80/22 62/82/22 63/81/22
f 54/76/21 53/75/21 62/78/21
f 53/75/21 61/77/21 62/78/21
f 53/80/20 56/79/20 61/82/20
f 56/79/20 64/81/20 61/82/20
o WallOutside#0_0_1
v 43.57037353515625 2.734999938867986 37.44572830200195
v 43.486582051171794 2.734999938867986 42.635717813779365
v 43.486582051171794 0 42.635717813779365
v 43.57037353515625 0 37.44572830200195
v 43.511421277006974 0.03999999604613044 41.09719247164363
v 43.49912817977645 0.03999999604613044 41.85861884410781
v 43.49912817977645 2.1199999526143074 41.85861884410781
v 43.511421277006974 2.1199999526143074 41.09719247164363
v 43.52038005087525 2.734999938867986 37.444921165835694
v 43.43658856689079 2.734999938867986 42.63491067761311
v 43.43658856689079 0 42.63491067761311
v 43.52038005087525 0 37.444921165835694
v 43.46142779272597 0.03999999604613044 41.09638533547737
v 43.449134695495445 0.03999999604613044 41.85781170794155
v 43.449134695495445 2.1199999526143074 41.85781170794155
v 43.46142779272597 2.1199999526143074 41.09638533547737
vt 3.6519400699474374 2.12
vt 3.6519400699474374 0.03999999694020005
vt 0 2.735
vt 0 0
vt 5.190665930189532 2.735
vt 4.41346568014931 0.03999999694020005
vt 4.41346568014931 2.12
vt 5.190665930189532 0
vt 0 0.01
vt 5.190665930189532 0.01
vt 0 -0.04
vt 5.190665930189532 -0.04
vt 2.735 0.01
vt 2.735 -0.04
vt 3.6519400699474374 0.01
vt 4.41346568014931 0.01
vt 3.6519400699474374 -0.04
vt 4.41346568014931 -0.04
vt 2.12 0.01
vt 0.03999999694020005 0.01
vt 2.12 -0.04
vt 0.03999999694020005 -0.04
vn 0.9998696977466546 0 0.01614272368634764
vn -0.9998696977466546 0 -0.01614272368634764
vn 0 -1 0
vn -0.01614272368634764 0 0.9998696977466546
vn 0 1 0
vn 0.01614272368634764 0 -0.9998696977466546
usemtl material_5
f 72/83/23 69/84/23 65/85/23
f 68/86/23 65/85/23 69/84/23
f 72/83/23 65/85/23 66/87/23
f 68/86/23 69/84/23 70/88/23
f 71/89/23 72/83/23 66/87/23
f 67/90/23 68/86/23 70/88/23
f 71/89/23 66/87/23 67/90/23
f 67/90/23 70/88/23 71/89/23
f 73/85/24 77/84/24 80/83/24
f 77/84/24 73/85/24 76/86/24
f 74/87/24 73/85/24 80/83/24
f 78/88/24 77/84/24 76/86/24
f 74/87/24 80/83/24 79/89/24
f 78/88/24 76/86/24 75/90/24
f 75/90/24 74/87/24 79/89/24
f 79/89/24 78/88/24 75/90/24
usemtl material_4
f 68/91/25 67/92/25 76/93/25
f 67/92/25 75/94/25 76/93/25
f 67/91/26 66/95/26 75/93/26
f 66/95/26 74/96/26 75/93/26
f 66/92/27 65/91/27 74/94/27
f 65/91/27 73/93/27 74/94/27
f 65/95/28 68/91/28 73/96/28
f 68/91/28 76/93/28 73/96/28
f 72/97/25 71/98/25 80/99/25
f 71/98/25 79/100/25 80/99/25
f 71/101/28 70/102/28 79/103/28
f 70/102/28 78/104/28 79/103/28
f 70/98/27 69/97/27 78/100/27
f 69/97/27 77/99/27 78/100/27
f 69/102/26 72/101/26 77/104/26
f 72/101/26 80/103/26 77/104/26
o WallInside#0_0_2
v 43.48249816894531 2.734999938867986 42.59539794921875
v 38.412502305447916 2.734999938867986 42.54459638603342
v 38.412502305447916 0 42.54459638603342
v 43.48249816894531 0 42.59539794921875
v 43.48299914580275 2.734999938867986 42.545400460250676
v 38.413003282305354 2.734999938867986 42.494598897065345
v 38.413003282305354 0 42.494598897065345
v 43.48299914580275 0 42.545400460250676
vt 5.070250494714666 0
vt 0 0
vt 0 2.735
vt 5.070250494714666 2.735
vt 0 0.01
vt 5.070250494714666 0.01
vt 0 -0.04
vt 5.070250494714666 -0.04
vt 2.735 0.01
vt 2.735 -0.04
vn -0.010019537256483897 0 0.9999498031767223
vn 0.010019537256483897 0 -0.9999498031767223
vn 0 -1 0
vn -0.9999498031767223 0 -0.010019537256483897
vn 0 1 0
vn 0.9999498031767223 0 0.010019537256483897
usemtl material_6
f 83/105/29 84/106/29 81/107/29
f 81/107/29 82/108/29 83/105/29
f 85/107/30 88/106/30 87/105/30
f 87/105/30 86/108/30 85/107/30
usemtl material_7
f 84/109/31 83/110/31 88/111/31
f 83/110/31 87/112/31 88/111/31
f 83/109/32 82/113/32 87/111/32
f 82/113/32 86/114/32 87/111/32
f 82/110/33 81/109/33 86/112/33
f 81/109/33 85/111/33 86/112/33
f 81/113/34 84/109/34 85/114/34
f 84/109/34 88/111/34 85/114/34
o WallOutside#0_0_2
v 43.48204803466797 2.734999938867986 42.64013671875
v 38.41205217117057 2.734999938867986 42.58933515556467
v 38.41205217117057 0 42.58933515556467
v 43.48204803466797 0 42.64013671875
v 43.48254901152541 2.734999938867986 42.590139229781926
v 38.41255314802801 2.734999938867986 42.539337666596595
v 38.41255314802801 0 42.539337666596595
v 43.48254901152541 0 42.590139229781926
vt 5.070250494714666 0
vt 0 0
vt 0 2.735
vt 5.070250494714666 2.735
vt 0 0.01
vt 5.070250494714666 0.01
vt 0 -0.04
vt 5.070250494714666 -0.04
vt 2.735 0.01
vt 2.735 -0.04
vn -0.010019537256483897 0 0.9999498031767223
vn 0.010019537256483897 0 -0.9999498031767223
vn 0 -1 0
vn -0.9999498031767223 0 -0.010019537256483897
vn 0 1 0
vn 0.9999498031767223 0 0.010019537256483897
usemtl material_8
f 91/115/35 92/116/35 89/117/35
f 89/117/35 90/118/35 91/115/35
f 93/117/36 96/116/36 95/115/36
f 95/115/36 94/118/36 93/117/36
usemtl material_7
f 92/119/37 91/120/37 96/121/37
f 91/120/37 95/122/37 96/121/37
f 91/119/38 90/123/38 95/121/38
f 90/123/38 94/124/38 95/121/38
f 90/120/39 89/119/39 94/122/39
f 89/119/39 93/121/39 94/122/39
f 89/123/40 92/119/40 93/124/40
f 92/119/40 96/121/40 93/124/40
o WallInside#0_0_3
v 38.453147888183594 2.734999938867986 42.58499526977539
v 38.36935034610366 2.734999938867986 37.42000596226785
v 38.36935034610366 0 37.42000596226785
v 38.453147888183594 0 42.58499526977539
v 38.39995771646076 0.03999999604613044 39.306537914178186
v 38.38759293152696 0.03999999604613044 38.54441553698728
v 38.38759293152696 2.1199999526143074 38.54441553698728
v 38.39995771646076 2.1199999526143074 39.306537914178186
v 38.50314130727202 2.734999938867986 42.584184169230866
v 38.41934376519208 2.734999938867986 37.41919486172333
v 38.41934376519208 0 37.41919486172333
v 38.50314130727202 0 42.584184169230866
v 38.449951135549185 0.03999999604613044 39.30572681363366
v 38.43758635061538 0.03999999604613044 38.543604436442756
v 38.43758635061538 2.1199999526143074 38.543604436442756
v 38.449951135549185 2.1199999526143074 39.30572681363366
vt 3.278888917157879 2.12
vt 3.278888917157879 0.03999999694020005
vt 0 2.735
vt 0 0
vt 5.165669203752832 2.735
vt 4.041111616752541 0.03999999694020005
vt 4.041111616752541 2.12
vt 5.165669203752832 0
vt 0 0.01
vt 5.165669203752832 0.01
vt 0 -0.04
vt 5.165669203752832 -0.04
vt 2.735 0.01
vt 2.735 -0.04
vt 3.278888917157879 0.01
vt 4.041111616752541 0.01
vt 3.278888917157879 -0.04
vt 4.041111616752541 -0.04
vt 2.12 0.01
vt 0.03999999694020005 0.01
vt 2.12 -0.04
vt 0.03999999694020005 -0.04
vn -0.9998684145196702 0 0.016222011155236533
vn -0.9998684145196705 0 0.016222011155236537
vn 0.9998684145196702 0 -0.016222011155236533
vn 0.9998684145196705 0 -0.016222011155236537
vn 0 -1 0
vn -0.016222011155236533 0 -0.9998684145196702
vn 0 1 0
vn 0.016222011155236533 0 0.9998684145196702
usemtl material_9
f 104/125/41 101/126/41 97/127/41
f 100/128/41 97/127/41 101/126/41
f 104/125/42 97/127/42 98/129/42
f 100/128/41 101/126/41 102/130/41
f 103/131/41 104/125/41 98/129/41
f 99/132/41 100/128/41 102/130/41
f 103/131/41 98/129/41 99/132/41
f 99/132/41 102/130/41 103/131/41
f 105/127/43 109/126/43 112/125/43
f 109/126/43 105/127/43 108/128/43
f 106/129/44 105/127/44 112/125/44
f 110/130/43 109/126/43 108/128/43
f 106/129/43 112/125/43 111/131/43
f 110/130/43 108/128/43 107/132/43
f 107/132/43 106/129/43 111/131/43
f 111/131/43 110/130/43 107/132/43
usemtl material_10
f 100/133/45 99/134/45 108/135/45
f 99/134/45 107/136/45 108/135/45
f 99/133/46 98/137/46 107/135/46
f 98/137/46 106/138/46 107/135/46
f 98/134/47 97/133/47 106/136/47
f 97/133/47 105/135/47 106/136/47
f 97/137/48 100/133/48 105/138/48
f 100/133/48 108/135/48 105/138/48
f 104/139/45 103/140/45 112/141/45
f 103/140/45 111/142/45 112/141/45
f 103/143/48 102/144/48 111/145/48
f 102/144/48 110/146/48 111/145/48
f 102/140/47 101/139/47 110/142/47
f 101/139/47 109/141/47 110/142/47
f 101/144/46 104/143/46 109/146/46
f 104/143/46 112/145/46 109/146/46
o WallOutside#0_0_3
v 38.408416748046875 2.734999938867986 42.58572006225586
v 38.32461920596694 2.734999938867986 37.42073075474832
v 38.32461920596694 0 37.42073075474832
v 38.408416748046875 0 42.58572006225586
v 38.35522657632404 0.03999999604613044 39.307262706658655
v 38.34286179139024 0.03999999604613044 38.54514032946775
v 38.34286179139024 2.1199999526143074 38.54514032946775
v 38.35522657632404 2.1199999526143074 39.307262706658655
v 38.4584101671353 2.734999938867986 42.584908961711335
v 38.37461262505536 2.734999938867986 37.419919654203795
v 38.37461262505536 0 37.419919654203795
v 38.4584101671353 0 42.584908961711335
v 38.405219995412466 0.03999999604613044 39.30645160611413
v 38.392855210478665 0.03999999604613044 38.544329228923225
v 38.392855210478665 2.1199999526143074 38.544329228923225
v 38.405219995412466 2.1199999526143074 39.30645160611413
vt 3.278888917157879 2.12
vt 3.278888917157879 0.03999999694020005
vt 0 2.735
vt 0 0
vt 5.165669203752832 2.735
vt 4.041111616752541 0.03999999694020005
vt 4.041111616752541 2.12
vt 5.165669203752832 0
vt 0 0.01
vt 5.165669203752832 0.01
vt 0 -0.04
vt 5.165669203752832 -0.04
vt 2.735 0.01
vt 2.735 -0.04
vt 3.278888917157879 0.01
vt 4.041111616752541 0.01
vt 3.278888917157879 -0.04
vt 4.041111616752541 -0.04
vt 2.12 0.01
vt 0.03999999694020005 0.01
vt 2.12 -0.04
vt 0.03999999694020005 -0.04
vn -0.9998684145196702 0 0.016222011155236533
vn -0.9998684145196705 0 0.016222011155236537
vn 0.9998684145196702 0 -0.016222011155236533
vn 0.9998684145196705 0 -0.016222011155236537
vn 0 -1 0
vn -0.016222011155236533 0 -0.9998684145196702
vn 0 1 0
vn 0.016222011155236533 0 0.9998684145196702
usemtl material_11
f 120/147/49 117/148/49 113/149/49
f 116/150/49 113/149/49 117/148/49
f 120/147/50 113/149/50 114/151/50
f 116/150/49 117/148/49 118/152/49
f 119/153/49 120/147/49 114/151/49
f 115/154/49 116/150/49 118/152/49
f 119/153/49 114/151/49 115/154/49
f 115/154/49 118/152/49 119/153/49
f 121/149/51 125/148/51 128/147/51
f 125/148/51 121/149/51 124/150/51
f 122/151/52 121/149/52 128/147/52
f 126/152/51 125/148/51 124/150/51
f 122/151/51 128/147/51 127/153/51
f 126/152/51 124/150/51 123/154/51
f 123/154/51 122/151/51 127/153/51
f 127/153/51 126/152/51 123/154/51
usemtl material_10
f 116/155/53 115/156/53 124/157/53
f 115/156/53 123/158/53 124/157/53
f 115/155/54 114/159/54 123/157/54
f 114/159/54 122/160/54 123/157/54
f 114/156/55 113/155/55 122/158/55
f 113/155/55 121/157/55 122/158/55
f 113/159/56 116/155/56 121/160/56
f 116/155/56 124/157/56 121/160/56
f 120/161/53 119/162/53 128/163/53
f 119/162/53 127/164/53 128/163/53
f 119/165/56 118/166/56 127/167/56
f 118/166/56 126/168/56 127/167/56
f 118/162/55 117/161/55 126/164/55
f 117/161/55 125/163/55 126/164/55
f 117/166/54 120/165/54 125/168/54
f 120/165/54 128/167/54 125/168/54
